<?xml version="1.0" standalone="no"?>
<!DOCTYPE svg PUBLIC "-//W3C//DTD SVG 20010904//EN"
 "http://www.w3.org/TR/2001/REC-SVG-20010904/DTD/svg10.dtd">
<svg version="1.0" xmlns="http://www.w3.org/2000/svg"
 width="1280.000000pt" height="640.000000pt" viewBox="0 0 1280.000000 640.000000"
 preserveAspectRatio="xMidYMid meet">
<metadata>
Created by potrace 1.15, written by Peter Selinger 2001-2017
</metadata>
<g transform="translate(0.000000,640.000000) scale(0.100000,-0.100000)"
fill="#000000" stroke="none">
<path d="M10489 5390 c-26 -15 -59 -105 -71 -194 -16 -115 6 -228 66 -351 64
-131 122 -208 319 -418 173 -185 222 -253 215 -299 -2 -19 -14 -26 -68 -40
-105 -29 -226 -32 -425 -12 -208 20 -406 23 -485 6 -30 -7 -116 -14 -190 -16
-201 -7 -372 -42 -550 -114 -363 -145 -423 -185 -720 -466 -80 -76 -168 -153
-196 -171 -64 -41 -110 -95 -186 -217 -33 -53 -72 -111 -87 -128 l-27 -32
-144 -3 c-105 -2 -160 -7 -199 -20 -62 -19 -116 -67 -127 -110 -34 -135 228
-435 379 -435 34 0 38 -2 27 -15 -7 -9 -60 -38 -117 -67 -151 -74 -177 -117
-278 -466 -29 -103 -66 -219 -81 -257 -47 -120 -44 -340 7 -455 46 -103 108
-127 186 -70 82 61 121 133 205 379 69 204 104 275 175 351 104 113 208 148
463 159 159 6 180 9 232 33 80 37 155 90 298 212 68 59 136 109 150 113 40 10
175 75 315 152 133 73 252 117 440 164 231 58 519 108 721 126 98 9 121 8 190
-10 43 -10 185 -33 314 -49 298 -39 400 -64 559 -139 196 -92 325 -121 395
-90 30 14 56 65 56 111 0 45 -45 113 -115 173 -30 26 -55 51 -55 56 0 21 104
1 324 -60 80 -23 131 -31 189 -31 92 0 132 15 178 68 26 29 30 41 26 70 -4 19
-13 45 -22 58 -31 47 -58 56 -183 61 -114 5 -120 6 -248 59 -72 29 -171 63
-220 75 -107 26 -141 38 -160 56 -23 23 -16 60 18 98 45 52 118 86 208 97 102
12 154 39 187 95 55 94 35 280 -44 410 -20 32 -51 84 -70 116 -101 169 -287
304 -534 386 l-96 32 -58 127 c-151 332 -260 519 -349 600 -55 50 -163 104
-256 128 -80 20 -162 14 -202 -16 -35 -25 -33 -27 -113 73 -83 104 -125 131
-166 107z"/>
<path d="M2359 3510 c-462 -20 -802 -90 -1067 -220 -182 -89 -357 -222 -532
-407 -233 -245 -380 -528 -415 -798 l-6 -50 -122 3 c-234 6 -282 -49 -118
-137 69 -36 165 -63 331 -91 157 -27 249 -53 323 -93 45 -23 57 -35 55 -51 -5
-31 -56 -55 -175 -80 -146 -32 -181 -48 -240 -110 -67 -70 -87 -130 -81 -240
5 -95 35 -162 83 -185 25 -12 37 -12 90 2 38 10 143 20 285 27 367 18 376 21
476 155 29 41 64 81 76 89 27 19 86 21 140 4 32 -9 109 -8 373 7 299 17 346
17 461 4 159 -17 578 -18 724 0 241 28 481 76 692 137 133 39 128 38 128 23 0
-24 84 -207 125 -275 50 -80 132 -162 193 -193 77 -39 183 -20 244 45 46 50
71 120 76 214 6 135 -65 453 -163 727 -19 54 -35 104 -35 110 0 19 110 71 184
88 36 8 158 22 273 30 214 15 291 29 378 69 188 86 223 262 84 420 -61 69
-149 109 -256 114 -119 6 -210 -11 -433 -83 -107 -35 -235 -71 -283 -80 l-88
-16 -107 98 c-336 311 -568 481 -817 599 -270 128 -465 161 -856 144z"/>
</g>
</svg>
